<!DOCTYPE svg PUBLIC "-//W3C//DTD SVG 20010904//EN" "http://www.w3.org/TR/2001/REC-SVG-20010904/DTD/svg10.dtd">
<svg version="1.0" xmlns="http://www.w3.org/2000/svg" width="720px" height="720px" viewBox="0 0 7200 7200" preserveAspectRatio="xMidYMid meet">
<g id="layer1" fill="#ffffff" stroke="none">
 <path d="M3430 6884 c-14 -2 -126 -8 -250 -14 -383 -17 -460 -48 -685 -276 -145 -147 -237 -245 -316 -334 -145 -165 -158 -181 -158 -186 0 -3 -20 -28 -45 -55 -25 -28 -43 -55 -40 -60 3 -5 1 -9 -4 -9 -6 0 -21 -19 -35 -42 -45 -78 -117 -218 -112 -218 2 0 -13 -35 -34 -77 -88 -179 -116 -239 -116 -248 0 -5 -11 -32 -24 -60 -34 -70 -61 -163 -61 -208 0 -20 -7 -81 -15 -135 -22 -146 -44 -372 -55 -559 -5 -93 -19 -233 -31 -313 -23 -163 -20 -226 15 -292 13 -24 24 -47 26 -53 8 -29 15 -37 43 -51 28 -15 31 -15 54 8 22 23 23 27 13 93 -18 125 -11 255 24 508 19 133 36 258 39 277 5 42 29 101 56 138 10 15 20 32 21 37 1 6 18 33 38 60 20 28 36 53 35 56 -1 3 18 30 42 59 24 30 42 57 39 62 -3 4 -1 8 4 8 5 0 49 53 97 118 48 64 97 125 109 134 11 10 17 18 11 18 -5 0 12 22 38 48 26 27 46 50 45 53 -2 2 11 18 28 34 l31 31 7 -81 c6 -83 23 -151 50 -204 9 -17 17 -34 18 -38 2 -17 91 -122 126 -150 72 -57 148 -102 222 -131 141 -55 157 -57 525 -57 387 1 545 15 923 84 87 16 169 65 260 154 70 69 91 98 133 182 27 55 52 114 55 130 2 17 9 41 14 55 15 41 30 128 30 173 0 69 14 75 45 20 15 -26 28 -55 30 -64 5 -22 92 -147 134 -191 19 -21 31 -38 27 -38 -5 0 21 -29 58 -65 37 -36 70 -65 74 -65 9 0 102 -106 102 -117 0 -5 9 -16 19 -25 24 -20 125 -168 128 -187 1 -8 10 -26 21 -40 22 -30 151 -293 181 -370 16 -38 23 -93 31 -219 21 -335 23 -406 11 -449 l-12 -42 -33 20 c-18 10 -38 30 -43 42 -17 38 -53 170 -57 213 -6 62 -54 176 -89 212 -18 19 -50 43 -72 54 -61 30 -215 66 -363 85 -119 15 -159 15 -367 4 -128 -7 -264 -17 -301 -22 -151 -21 -249 -68 -317 -152 -38 -46 -127 -212 -127 -237 0 -8 -19 -60 -42 -114 -51 -119 -71 -136 -166 -136 -68 0 -121 21 -158 62 -28 30 -75 113 -69 120 3 2 -6 27 -19 54 -13 27 -29 67 -36 89 -27 85 -36 101 -74 143 -42 46 -96 77 -186 108 -50 17 -88 19 -390 19 -316 0 -340 -1 -417 -22 -302 -83 -399 -142 -444 -273 -21 -60 -69 -288 -69 -325 0 -16 -7 -26 -22 -30 -53 -16 -98 -83 -98 -145 0 -23 -4 -30 -20 -30 -28 0 -57 -32 -70 -77 -33 -110 -52 -636 -30 -843 6 -52 11 -111 11 -130 2 -86 65 -233 123 -289 20 -19 36 -41 36 -48 0 -8 6 -16 14 -19 7 -3 58 -62 112 -132 55 -69 118 -147 141 -172 22 -25 41 -48 42 -53 0 -4 12 -19 25 -35 41 -46 118 -166 121 -187 1 -11 6 -29 12 -40 16 -30 63 -200 63 -227 0 -38 52 -128 97 -168 25 -22 74 -49 114 -64 39 -15 80 -32 90 -39 26 -19 89 -100 83 -108 -2 -5 33 -45 78 -91 142 -142 266 -185 453 -158 143 21 166 22 210 10 24 -7 54 -23 67 -37 60 -65 127 -69 249 -16 80 35 91 37 229 44 97 5 160 13 190 24 37 14 64 16 157 11 131 -8 147 -3 218 72 l45 47 105 -3 c60 -1 113 2 124 8 34 18 116 92 123 112 8 20 69 101 80 106 4 2 24 17 45 33 20 17 57 36 82 42 77 21 146 99 221 252 35 72 75 144 88 161 14 17 24 34 23 38 0 3 15 29 35 57 19 28 37 59 39 69 2 9 19 49 39 88 64 128 59 170 -35 277 l-50 57 43 27 c48 31 65 50 95 102 24 43 63 152 68 194 3 16 20 77 38 135 19 58 35 112 35 120 0 8 12 69 25 135 47 224 57 325 55 546 l-3 206 -29 37 c-15 21 -39 42 -52 48 -34 16 -30 33 17 75 22 20 56 67 75 105 41 81 44 135 14 264 -11 48 -22 108 -25 133 -2 25 -9 80 -14 121 -6 41 -11 104 -11 140 0 36 -12 144 -26 240 -15 96 -26 184 -26 195 1 23 -32 158 -55 225 -8 25 -17 60 -20 78 -3 18 -22 75 -43 127 -21 51 -36 96 -34 98 3 3 -14 49 -36 103 -23 55 -44 110 -46 123 -3 13 -20 55 -39 93 -19 39 -35 75 -35 80 0 19 -77 106 -225 253 -83 83 -211 214 -285 293 -133 142 -253 247 -383 336 -70 47 -248 137 -308 154 -19 6 -72 22 -119 37 -125 39 -391 64 -510 49z m545 -1058 c95 -31 239 -155 302 -263 23 -40 27 -59 27 -118 0 -61 -4 -77 -30 -120 -28 -46 -34 -50 -100 -67 -156 -42 -290 -59 -529 -69 -329 -14 -456 -6 -700 41 -110 21 -217 41 -238 45 -27 4 -53 20 -89 56 -29 27 -49 49 -44 49 5 0 0 12 -10 27 -22 35 -23 107 -1 131 10 10 17 23 17 29 0 18 174 128 300 191 58 28 87 37 128 37 48 0 56 -3 78 -30 90 -110 143 -144 257 -166 79 -15 168 -2 225 33 42 26 82 78 86 114 9 61 32 83 101 94 54 9 171 1 220 -14z m890 -1621 c55 -8 118 -20 140 -26 22 -5 54 -14 70 -18 53 -14 74 -31 93 -74 51 -114 60 -161 68 -357 12 -266 15 -240 -30 -271 -57 -38 -155 -57 -366 -69 -342 -19 -606 -10 -838 30 -124 22 -136 26 -171 64 -26 28 -35 63 -35 141 0 77 11 130 51 239 20 56 37 108 38 116 1 8 11 36 22 62 17 36 35 56 77 83 30 19 62 35 70 35 8 0 39 9 68 19 47 18 114 32 203 45 63 9 444 -4 540 -19z m-2063 -44 c93 -6 112 -11 154 -37 26 -16 52 -38 58 -49 6 -11 20 -36 32 -55 12 -19 25 -46 29 -60 5 -14 25 -62 46 -107 22 -45 39 -91 39 -102 0 -11 7 -46 15 -78 15 -58 20 -158 9 -188 -19 -48 -230 -95 -539 -120 -110 -8 -252 -21 -315 -28 -152 -16 -346 -15 -443 2 -72 13 -79 16 -99 49 -37 61 -37 178 1 365 18 85 31 159 29 163 -1 5 1 26 5 46 9 44 60 93 114 108 21 5 79 21 128 35 50 14 115 30 145 36 116 24 401 34 592 20z m917 -808 c201 -65 593 -98 1094 -91 251 4 292 7 370 27 49 12 106 21 129 19 38 -3 40 -5 59 -57 15 -45 18 -76 15 -190 -3 -117 -9 -155 -39 -271 -20 -74 -39 -150 -42 -169 -3 -19 -21 -74 -40 -123 -19 -50 -35 -95 -35 -102 0 -7 -17 -46 -38 -88 -21 -41 -39 -81 -39 -89 0 -8 -15 -39 -33 -69 -17 -30 -33 -62 -35 -72 -2 -9 -12 -30 -23 -45 -35 -52 -56 -88 -58 -102 -2 -7 -16 -28 -33 -45 -17 -18 -31 -37 -31 -43 0 -6 -16 -21 -35 -33 -19 -12 -35 -25 -35 -30 0 -11 -110 -63 -187 -89 -34 -11 -115 -24 -196 -31 -118 -10 -164 -9 -325 7 -199 19 -315 21 -587 9 -128 -6 -217 -4 -360 8 -412 36 -509 33 -730 -20 -38 -9 -87 -19 -107 -21 -46 -6 -131 21 -178 56 -49 36 -240 225 -240 237 0 6 -14 20 -31 33 -16 12 -34 33 -39 47 -5 13 -14 24 -19 24 -5 0 -25 24 -44 53 -19 28 -49 69 -66 91 -17 21 -31 43 -31 49 0 5 -15 33 -33 61 -18 28 -39 67 -46 86 -7 19 -25 64 -39 100 -24 62 -25 75 -25 260 -1 168 2 207 21 281 12 48 22 116 22 153 l0 66 33 0 c18 0 84 -8 147 -17 160 -23 547 -24 835 0 322 26 330 28 645 127 187 59 257 59 429 3z"/>
 </g>

</svg>